<mxfile host="app.diagrams.net" modified="2024-05-03T11:51:26.955Z" agent="Mozilla/5.0 (Windows NT 10.0; Win64; x64) AppleWebKit/537.36 (KHTML, like Gecko) Chrome/124.0.0.0 Safari/537.36 Edg/124.0.0.0" etag="i0M5Q-XIXqcYd4ohUuDP" version="24.3.1" type="device">
  <diagram name="Page-1" id="0Q3_14aTR4ezbdqHE9gz">
    <mxGraphModel dx="2413" dy="1862" grid="1" gridSize="10" guides="1" tooltips="1" connect="1" arrows="1" fold="1" page="1" pageScale="1" pageWidth="1100" pageHeight="850" math="0" shadow="0">
      <root>
        <mxCell id="0" />
        <mxCell id="1" parent="0" />
        <mxCell id="sw1r8paWphoOO6Eo6f51-1" value="&lt;font style=&quot;font-size: 18px;&quot;&gt;user&lt;/font&gt;" style="whiteSpace=wrap;html=1;align=center;" parent="1" vertex="1">
          <mxGeometry x="1385" y="-140" width="190" height="60" as="geometry" />
        </mxCell>
        <mxCell id="-LMKYSULlH5TtVwdixFP-77" style="edgeStyle=orthogonalEdgeStyle;rounded=0;orthogonalLoop=1;jettySize=auto;html=1;exitX=0.5;exitY=1;exitDx=0;exitDy=0;entryX=0.5;entryY=0;entryDx=0;entryDy=0;" edge="1" parent="1" source="sw1r8paWphoOO6Eo6f51-2" target="sw1r8paWphoOO6Eo6f51-94">
          <mxGeometry relative="1" as="geometry" />
        </mxCell>
        <mxCell id="sw1r8paWphoOO6Eo6f51-2" value="&lt;font style=&quot;font-size: 18px;&quot;&gt;assets&lt;/font&gt;" style="whiteSpace=wrap;html=1;align=center;" parent="1" vertex="1">
          <mxGeometry x="260" y="40" width="140" height="60" as="geometry" />
        </mxCell>
        <mxCell id="sw1r8paWphoOO6Eo6f51-4" value="&lt;font style=&quot;font-size: 18px;&quot;&gt;bill&lt;/font&gt;" style="whiteSpace=wrap;html=1;align=center;" parent="1" vertex="1">
          <mxGeometry x="720" y="415" width="130" height="50" as="geometry" />
        </mxCell>
        <mxCell id="sw1r8paWphoOO6Eo6f51-5" value="&lt;font style=&quot;font-size: 18px;&quot;&gt;item&lt;/font&gt;" style="whiteSpace=wrap;html=1;align=center;" parent="1" vertex="1">
          <mxGeometry x="260" y="405" width="140" height="60" as="geometry" />
        </mxCell>
        <mxCell id="sw1r8paWphoOO6Eo6f51-11" value="bill_amount" style="ellipse;whiteSpace=wrap;html=1;align=center;" parent="1" vertex="1">
          <mxGeometry x="680" y="590" width="100" height="40" as="geometry" />
        </mxCell>
        <mxCell id="sw1r8paWphoOO6Eo6f51-12" value="bill_date" style="ellipse;whiteSpace=wrap;html=1;align=center;" parent="1" vertex="1">
          <mxGeometry x="980" y="590" width="100" height="40" as="geometry" />
        </mxCell>
        <mxCell id="sw1r8paWphoOO6Eo6f51-13" value="no_of_items" style="ellipse;whiteSpace=wrap;html=1;align=center;" parent="1" vertex="1">
          <mxGeometry x="880" y="590" width="100" height="40" as="geometry" />
        </mxCell>
        <mxCell id="sw1r8paWphoOO6Eo6f51-15" value="bill_number" style="ellipse;whiteSpace=wrap;html=1;align=center;" parent="1" vertex="1">
          <mxGeometry x="580" y="590" width="100" height="40" as="geometry" />
        </mxCell>
        <mxCell id="sw1r8paWphoOO6Eo6f51-17" value="&lt;font style=&quot;font-size: 18px;&quot;&gt;supplier&lt;/font&gt;" style="whiteSpace=wrap;html=1;align=center;" parent="1" vertex="1">
          <mxGeometry x="1305" y="415" width="130" height="50" as="geometry" />
        </mxCell>
        <mxCell id="sw1r8paWphoOO6Eo6f51-18" value="bill_id" style="ellipse;whiteSpace=wrap;html=1;align=center;fontStyle=4;" parent="1" vertex="1">
          <mxGeometry x="780" y="590" width="100" height="40" as="geometry" />
        </mxCell>
        <mxCell id="sw1r8paWphoOO6Eo6f51-26" value="has" style="shape=rhombus;perimeter=rhombusPerimeter;whiteSpace=wrap;html=1;align=center;" parent="1" vertex="1">
          <mxGeometry x="1070" y="410" width="120" height="60" as="geometry" />
        </mxCell>
        <mxCell id="sw1r8paWphoOO6Eo6f51-30" value="supplier_name" style="ellipse;whiteSpace=wrap;html=1;align=center;" parent="1" vertex="1">
          <mxGeometry x="1430" y="580" width="100" height="40" as="geometry" />
        </mxCell>
        <mxCell id="sw1r8paWphoOO6Eo6f51-35" value="phone_no" style="ellipse;whiteSpace=wrap;html=1;align=center;" parent="1" vertex="1">
          <mxGeometry x="1320" y="580" width="100" height="40" as="geometry" />
        </mxCell>
        <mxCell id="sw1r8paWphoOO6Eo6f51-37" value="supplier_id" style="ellipse;whiteSpace=wrap;html=1;align=center;fontStyle=4;" parent="1" vertex="1">
          <mxGeometry x="1215" y="580" width="100" height="40" as="geometry" />
        </mxCell>
        <mxCell id="sw1r8paWphoOO6Eo6f51-42" value="security_answer" style="ellipse;whiteSpace=wrap;html=1;align=center;" parent="1" vertex="1">
          <mxGeometry x="1760" y="-250" width="100" height="40" as="geometry" />
        </mxCell>
        <mxCell id="sw1r8paWphoOO6Eo6f51-43" value="security_question" style="ellipse;whiteSpace=wrap;html=1;align=center;" parent="1" vertex="1">
          <mxGeometry x="1655" y="-250" width="100" height="40" as="geometry" />
        </mxCell>
        <mxCell id="sw1r8paWphoOO6Eo6f51-44" value="password" style="ellipse;whiteSpace=wrap;html=1;align=center;" parent="1" vertex="1">
          <mxGeometry x="1550" y="-250" width="100" height="40" as="geometry" />
        </mxCell>
        <mxCell id="sw1r8paWphoOO6Eo6f51-52" value="emp_id" style="ellipse;whiteSpace=wrap;html=1;align=center;fontStyle=4;" parent="1" vertex="1">
          <mxGeometry x="630" y="-260" width="100" height="40" as="geometry" />
        </mxCell>
        <mxCell id="sw1r8paWphoOO6Eo6f51-53" value="prev_password" style="ellipse;whiteSpace=wrap;html=1;align=center;" parent="1" vertex="1">
          <mxGeometry x="1440" y="-250" width="100" height="40" as="geometry" />
        </mxCell>
        <mxCell id="sw1r8paWphoOO6Eo6f51-55" value="name" style="ellipse;whiteSpace=wrap;html=1;align=center;" parent="1" vertex="1">
          <mxGeometry x="190" y="-260" width="100" height="40" as="geometry" />
        </mxCell>
        <mxCell id="sw1r8paWphoOO6Eo6f51-58" value="dob" style="ellipse;whiteSpace=wrap;html=1;align=center;" parent="1" vertex="1">
          <mxGeometry x="410" y="-260" width="100" height="40" as="geometry" />
        </mxCell>
        <mxCell id="sw1r8paWphoOO6Eo6f51-59" value="mobile_no" style="ellipse;whiteSpace=wrap;html=1;align=center;" parent="1" vertex="1">
          <mxGeometry x="300" y="-260" width="100" height="40" as="geometry" />
        </mxCell>
        <mxCell id="sw1r8paWphoOO6Eo6f51-60" value="created_date" style="ellipse;whiteSpace=wrap;html=1;align=center;" parent="1" vertex="1">
          <mxGeometry x="1115" y="-248" width="100" height="40" as="geometry" />
        </mxCell>
        <mxCell id="sw1r8paWphoOO6Eo6f51-61" value="age" style="ellipse;whiteSpace=wrap;html=1;align=center;dashed=1;" parent="1" vertex="1">
          <mxGeometry x="520" y="-260" width="100" height="40" as="geometry" />
        </mxCell>
        <mxCell id="sw1r8paWphoOO6Eo6f51-74" value="item_id" style="ellipse;whiteSpace=wrap;html=1;align=center;fontStyle=4;" parent="1" vertex="1">
          <mxGeometry x="80" y="60" width="100" height="40" as="geometry" />
        </mxCell>
        <mxCell id="sw1r8paWphoOO6Eo6f51-75" value="emp_id" style="ellipse;whiteSpace=wrap;html=1;align=center;fontStyle=4;" parent="1" vertex="1">
          <mxGeometry x="80" y="10" width="100" height="40" as="geometry" />
        </mxCell>
        <mxCell id="sw1r8paWphoOO6Eo6f51-76" value="bill_number" style="ellipse;whiteSpace=wrap;html=1;align=center;" parent="1" vertex="1">
          <mxGeometry x="80" y="420" width="100" height="40" as="geometry" />
        </mxCell>
        <mxCell id="sw1r8paWphoOO6Eo6f51-77" value="item_id" style="ellipse;whiteSpace=wrap;html=1;align=center;fontStyle=4;" parent="1" vertex="1">
          <mxGeometry x="80" y="370" width="100" height="40" as="geometry" />
        </mxCell>
        <mxCell id="sw1r8paWphoOO6Eo6f51-78" value="assigned_date" style="ellipse;whiteSpace=wrap;html=1;align=center;" parent="1" vertex="1">
          <mxGeometry x="80" y="110" width="100" height="40" as="geometry" />
        </mxCell>
        <mxCell id="sw1r8paWphoOO6Eo6f51-79" value="asset_status" style="ellipse;whiteSpace=wrap;html=1;align=center;" parent="1" vertex="1">
          <mxGeometry x="80" y="160" width="100" height="40" as="geometry" />
        </mxCell>
        <mxCell id="sw1r8paWphoOO6Eo6f51-80" value="unassigned_date" style="ellipse;whiteSpace=wrap;html=1;align=center;" parent="1" vertex="1">
          <mxGeometry x="80" y="-40" width="100" height="40" as="geometry" />
        </mxCell>
        <mxCell id="-LMKYSULlH5TtVwdixFP-38" style="edgeStyle=orthogonalEdgeStyle;rounded=0;orthogonalLoop=1;jettySize=auto;html=1;exitX=0;exitY=0.5;exitDx=0;exitDy=0;entryX=0.5;entryY=0;entryDx=0;entryDy=0;" edge="1" parent="1" source="sw1r8paWphoOO6Eo6f51-81" target="sw1r8paWphoOO6Eo6f51-2">
          <mxGeometry relative="1" as="geometry" />
        </mxCell>
        <mxCell id="sw1r8paWphoOO6Eo6f51-81" value="gets" style="shape=rhombus;perimeter=rhombusPerimeter;whiteSpace=wrap;html=1;align=center;" parent="1" vertex="1">
          <mxGeometry x="450" y="-50" width="120" height="60" as="geometry" />
        </mxCell>
        <mxCell id="sw1r8paWphoOO6Eo6f51-88" value="item_name" style="ellipse;whiteSpace=wrap;html=1;align=center;" parent="1" vertex="1">
          <mxGeometry x="80" y="320" width="100" height="40" as="geometry" />
        </mxCell>
        <mxCell id="sw1r8paWphoOO6Eo6f51-90" value="item_type" style="ellipse;whiteSpace=wrap;html=1;align=center;" parent="1" vertex="1">
          <mxGeometry x="80" y="470" width="100" height="40" as="geometry" />
        </mxCell>
        <mxCell id="sw1r8paWphoOO6Eo6f51-91" value="item_status" style="ellipse;whiteSpace=wrap;html=1;align=center;" parent="1" vertex="1">
          <mxGeometry x="80" y="520" width="100" height="40" as="geometry" />
        </mxCell>
        <mxCell id="sw1r8paWphoOO6Eo6f51-92" value="bar_code" style="ellipse;whiteSpace=wrap;html=1;align=center;" parent="1" vertex="1">
          <mxGeometry x="80" y="570" width="100" height="40" as="geometry" />
        </mxCell>
        <mxCell id="sw1r8paWphoOO6Eo6f51-93" value="warranty" style="ellipse;whiteSpace=wrap;html=1;align=center;" parent="1" vertex="1">
          <mxGeometry x="80" y="620" width="100" height="40" as="geometry" />
        </mxCell>
        <mxCell id="-LMKYSULlH5TtVwdixFP-76" style="edgeStyle=orthogonalEdgeStyle;rounded=0;orthogonalLoop=1;jettySize=auto;html=1;exitX=0.5;exitY=1;exitDx=0;exitDy=0;entryX=0.5;entryY=0;entryDx=0;entryDy=0;" edge="1" parent="1" source="sw1r8paWphoOO6Eo6f51-94" target="sw1r8paWphoOO6Eo6f51-5">
          <mxGeometry relative="1" as="geometry" />
        </mxCell>
        <mxCell id="sw1r8paWphoOO6Eo6f51-94" value="have" style="shape=rhombus;perimeter=rhombusPerimeter;whiteSpace=wrap;html=1;align=center;" parent="1" vertex="1">
          <mxGeometry x="270" y="253" width="120" height="60" as="geometry" />
        </mxCell>
        <mxCell id="sw1r8paWphoOO6Eo6f51-97" value="has" style="shape=rhombus;perimeter=rhombusPerimeter;whiteSpace=wrap;html=1;align=center;" parent="1" vertex="1">
          <mxGeometry x="490" y="410" width="120" height="60" as="geometry" />
        </mxCell>
        <mxCell id="-LMKYSULlH5TtVwdixFP-1" value="" style="edgeStyle=entityRelationEdgeStyle;fontSize=12;html=1;endArrow=ERmany;rounded=0;entryX=1;entryY=0.5;entryDx=0;entryDy=0;exitX=0;exitY=0.5;exitDx=0;exitDy=0;" edge="1" parent="1" source="sw1r8paWphoOO6Eo6f51-26" target="sw1r8paWphoOO6Eo6f51-4">
          <mxGeometry width="100" height="100" relative="1" as="geometry">
            <mxPoint x="640" y="380" as="sourcePoint" />
            <mxPoint x="740" y="280" as="targetPoint" />
          </mxGeometry>
        </mxCell>
        <mxCell id="-LMKYSULlH5TtVwdixFP-2" value="" style="edgeStyle=entityRelationEdgeStyle;fontSize=12;html=1;endArrow=ERone;endFill=1;rounded=0;entryX=0;entryY=0.5;entryDx=0;entryDy=0;exitX=1;exitY=0.5;exitDx=0;exitDy=0;" edge="1" parent="1" source="sw1r8paWphoOO6Eo6f51-26" target="sw1r8paWphoOO6Eo6f51-17">
          <mxGeometry width="100" height="100" relative="1" as="geometry">
            <mxPoint x="640" y="380" as="sourcePoint" />
            <mxPoint x="740" y="280" as="targetPoint" />
          </mxGeometry>
        </mxCell>
        <mxCell id="-LMKYSULlH5TtVwdixFP-3" value="&lt;span style=&quot;border-bottom: 1px dotted&quot;&gt;Attribute&lt;/span&gt;" style="ellipse;whiteSpace=wrap;html=1;align=center;" vertex="1" parent="1">
          <mxGeometry x="480" y="590" width="100" height="40" as="geometry" />
        </mxCell>
        <mxCell id="-LMKYSULlH5TtVwdixFP-7" value="" style="edgeStyle=entityRelationEdgeStyle;fontSize=12;html=1;endArrow=ERmany;rounded=0;entryX=1;entryY=0.5;entryDx=0;entryDy=0;exitX=0;exitY=0.5;exitDx=0;exitDy=0;" edge="1" parent="1" source="sw1r8paWphoOO6Eo6f51-97" target="sw1r8paWphoOO6Eo6f51-5">
          <mxGeometry width="100" height="100" relative="1" as="geometry">
            <mxPoint x="720" y="420" as="sourcePoint" />
            <mxPoint x="820" y="320" as="targetPoint" />
          </mxGeometry>
        </mxCell>
        <mxCell id="-LMKYSULlH5TtVwdixFP-8" value="" style="edgeStyle=entityRelationEdgeStyle;fontSize=12;html=1;endArrow=ERone;endFill=1;rounded=0;entryX=0;entryY=0.5;entryDx=0;entryDy=0;exitX=1;exitY=0.5;exitDx=0;exitDy=0;" edge="1" parent="1" source="sw1r8paWphoOO6Eo6f51-97" target="sw1r8paWphoOO6Eo6f51-4">
          <mxGeometry width="100" height="100" relative="1" as="geometry">
            <mxPoint x="1210" y="450" as="sourcePoint" />
            <mxPoint x="1300" y="450" as="targetPoint" />
            <Array as="points">
              <mxPoint x="1170" y="430" />
            </Array>
          </mxGeometry>
        </mxCell>
        <mxCell id="-LMKYSULlH5TtVwdixFP-10" value="&lt;font style=&quot;font-size: 18px;&quot;&gt;admin&lt;/font&gt;" style="whiteSpace=wrap;html=1;align=center;" vertex="1" parent="1">
          <mxGeometry x="1045" y="70" width="190" height="60" as="geometry" />
        </mxCell>
        <mxCell id="-LMKYSULlH5TtVwdixFP-11" value="&lt;font style=&quot;font-size: 18px;&quot;&gt;employee&lt;/font&gt;" style="whiteSpace=wrap;html=1;align=center;" vertex="1" parent="1">
          <mxGeometry x="430" y="-140" width="190" height="60" as="geometry" />
        </mxCell>
        <mxCell id="-LMKYSULlH5TtVwdixFP-12" value="mobile_no" style="ellipse;whiteSpace=wrap;html=1;align=center;" vertex="1" parent="1">
          <mxGeometry x="970" y="229" width="100" height="42" as="geometry" />
        </mxCell>
        <mxCell id="-LMKYSULlH5TtVwdixFP-13" value="admin_id" style="ellipse;whiteSpace=wrap;html=1;align=center;fontStyle=4;" vertex="1" parent="1">
          <mxGeometry x="1090" y="229" width="100" height="42" as="geometry" />
        </mxCell>
        <mxCell id="-LMKYSULlH5TtVwdixFP-14" value="name" style="ellipse;whiteSpace=wrap;html=1;align=center;" vertex="1" parent="1">
          <mxGeometry x="850" y="229" width="100" height="42" as="geometry" />
        </mxCell>
        <mxCell id="-LMKYSULlH5TtVwdixFP-16" value="dob" style="ellipse;whiteSpace=wrap;html=1;align=center;" vertex="1" parent="1">
          <mxGeometry x="1205" y="229" width="100" height="42" as="geometry" />
        </mxCell>
        <mxCell id="-LMKYSULlH5TtVwdixFP-17" value="age" style="ellipse;whiteSpace=wrap;html=1;align=center;dashed=1;" vertex="1" parent="1">
          <mxGeometry x="1315" y="229" width="100" height="42" as="geometry" />
        </mxCell>
        <mxCell id="-LMKYSULlH5TtVwdixFP-18" value="has role admin&amp;nbsp;" style="shape=rhombus;perimeter=rhombusPerimeter;whiteSpace=wrap;html=1;align=center;" vertex="1" parent="1">
          <mxGeometry x="1415" y="40" width="120" height="60" as="geometry" />
        </mxCell>
        <mxCell id="-LMKYSULlH5TtVwdixFP-19" value="has role employee" style="shape=rhombus;perimeter=rhombusPerimeter;whiteSpace=wrap;html=1;align=center;" vertex="1" parent="1">
          <mxGeometry x="925" y="-140" width="120" height="60" as="geometry" />
        </mxCell>
        <mxCell id="-LMKYSULlH5TtVwdixFP-20" value="contact_no" style="ellipse;whiteSpace=wrap;html=1;align=center;" vertex="1" parent="1">
          <mxGeometry x="735" y="-260" width="100" height="40" as="geometry" />
        </mxCell>
        <mxCell id="-LMKYSULlH5TtVwdixFP-21" value="contact_no" style="ellipse;whiteSpace=wrap;html=1;align=center;" vertex="1" parent="1">
          <mxGeometry x="720" y="229" width="100" height="42" as="geometry" />
        </mxCell>
        <mxCell id="-LMKYSULlH5TtVwdixFP-22" value="address" style="ellipse;whiteSpace=wrap;html=1;align=center;" vertex="1" parent="1">
          <mxGeometry x="80" y="-260" width="100" height="40" as="geometry" />
        </mxCell>
        <mxCell id="-LMKYSULlH5TtVwdixFP-23" value="address" style="ellipse;whiteSpace=wrap;html=1;align=center;" vertex="1" parent="1">
          <mxGeometry x="1430" y="229" width="100" height="42" as="geometry" />
        </mxCell>
        <mxCell id="-LMKYSULlH5TtVwdixFP-24" value="department" style="ellipse;whiteSpace=wrap;html=1;align=center;" vertex="1" parent="1">
          <mxGeometry x="840" y="-260" width="100" height="40" as="geometry" />
        </mxCell>
        <mxCell id="-LMKYSULlH5TtVwdixFP-25" value="company_email" style="ellipse;whiteSpace=wrap;html=1;align=center;fontStyle=4;" vertex="1" parent="1">
          <mxGeometry x="1330" y="-250" width="100" height="42" as="geometry" />
        </mxCell>
        <mxCell id="-LMKYSULlH5TtVwdixFP-26" value="&lt;span style=&quot;border-bottom: 1px dotted&quot;&gt;role_id&lt;/span&gt;" style="ellipse;whiteSpace=wrap;html=1;align=center;" vertex="1" parent="1">
          <mxGeometry x="1220" y="-249" width="100" height="40" as="geometry" />
        </mxCell>
        <mxCell id="-LMKYSULlH5TtVwdixFP-27" value="&lt;font style=&quot;font-size: 18px;&quot;&gt;role&lt;/font&gt;" style="whiteSpace=wrap;html=1;align=center;" vertex="1" parent="1">
          <mxGeometry x="1740" y="140" width="190" height="60" as="geometry" />
        </mxCell>
        <mxCell id="-LMKYSULlH5TtVwdixFP-28" value="role_id" style="ellipse;whiteSpace=wrap;html=1;align=center;fontStyle=4;" vertex="1" parent="1">
          <mxGeometry x="1720" y="271" width="100" height="42" as="geometry" />
        </mxCell>
        <mxCell id="-LMKYSULlH5TtVwdixFP-29" value="role_name" style="ellipse;whiteSpace=wrap;html=1;align=center;" vertex="1" parent="1">
          <mxGeometry x="1840" y="273" width="100" height="40" as="geometry" />
        </mxCell>
        <mxCell id="-LMKYSULlH5TtVwdixFP-31" value="userRole" style="shape=rhombus;perimeter=rhombusPerimeter;whiteSpace=wrap;html=1;align=center;" vertex="1" parent="1">
          <mxGeometry x="1645" y="-20" width="120" height="60" as="geometry" />
        </mxCell>
        <mxCell id="-LMKYSULlH5TtVwdixFP-32" value="assigned_by_admin_id" style="ellipse;whiteSpace=wrap;html=1;align=center;" vertex="1" parent="1">
          <mxGeometry x="80" y="-90" width="140" height="40" as="geometry" />
        </mxCell>
        <mxCell id="-LMKYSULlH5TtVwdixFP-37" style="edgeStyle=orthogonalEdgeStyle;rounded=0;orthogonalLoop=1;jettySize=auto;html=1;exitX=0;exitY=0.5;exitDx=0;exitDy=0;entryX=1;entryY=0.5;entryDx=0;entryDy=0;" edge="1" parent="1" source="-LMKYSULlH5TtVwdixFP-33" target="sw1r8paWphoOO6Eo6f51-2">
          <mxGeometry relative="1" as="geometry" />
        </mxCell>
        <mxCell id="-LMKYSULlH5TtVwdixFP-106" style="edgeStyle=orthogonalEdgeStyle;rounded=0;orthogonalLoop=1;jettySize=auto;html=1;exitX=1;exitY=0.5;exitDx=0;exitDy=0;entryX=0;entryY=0.5;entryDx=0;entryDy=0;" edge="1" parent="1" source="-LMKYSULlH5TtVwdixFP-33" target="-LMKYSULlH5TtVwdixFP-10">
          <mxGeometry relative="1" as="geometry" />
        </mxCell>
        <mxCell id="-LMKYSULlH5TtVwdixFP-33" value="assigns" style="shape=rhombus;perimeter=rhombusPerimeter;whiteSpace=wrap;html=1;align=center;" vertex="1" parent="1">
          <mxGeometry x="670" y="70" width="120" height="60" as="geometry" />
        </mxCell>
        <mxCell id="-LMKYSULlH5TtVwdixFP-39" style="edgeStyle=orthogonalEdgeStyle;rounded=0;orthogonalLoop=1;jettySize=auto;html=1;exitX=0.5;exitY=0;exitDx=0;exitDy=0;entryX=0.411;entryY=1;entryDx=0;entryDy=0;entryPerimeter=0;" edge="1" parent="1" source="sw1r8paWphoOO6Eo6f51-81" target="-LMKYSULlH5TtVwdixFP-11">
          <mxGeometry relative="1" as="geometry" />
        </mxCell>
        <mxCell id="-LMKYSULlH5TtVwdixFP-48" value="" style="endArrow=none;html=1;rounded=0;exitX=0.5;exitY=1;exitDx=0;exitDy=0;entryX=0.5;entryY=0;entryDx=0;entryDy=0;" edge="1" parent="1" source="sw1r8paWphoOO6Eo6f51-4" target="sw1r8paWphoOO6Eo6f51-18">
          <mxGeometry relative="1" as="geometry">
            <mxPoint x="1060" y="320" as="sourcePoint" />
            <mxPoint x="1220" y="320" as="targetPoint" />
          </mxGeometry>
        </mxCell>
        <mxCell id="-LMKYSULlH5TtVwdixFP-49" value="" style="endArrow=none;html=1;rounded=0;exitX=0.5;exitY=1;exitDx=0;exitDy=0;entryX=0.5;entryY=0;entryDx=0;entryDy=0;" edge="1" parent="1" source="sw1r8paWphoOO6Eo6f51-4" target="sw1r8paWphoOO6Eo6f51-11">
          <mxGeometry relative="1" as="geometry">
            <mxPoint x="1070" y="330" as="sourcePoint" />
            <mxPoint x="1230" y="330" as="targetPoint" />
          </mxGeometry>
        </mxCell>
        <mxCell id="-LMKYSULlH5TtVwdixFP-51" value="" style="endArrow=none;html=1;rounded=0;exitX=0.5;exitY=1;exitDx=0;exitDy=0;entryX=0.5;entryY=0;entryDx=0;entryDy=0;" edge="1" parent="1" source="sw1r8paWphoOO6Eo6f51-4" target="sw1r8paWphoOO6Eo6f51-12">
          <mxGeometry relative="1" as="geometry">
            <mxPoint x="1090" y="350" as="sourcePoint" />
            <mxPoint x="1250" y="350" as="targetPoint" />
          </mxGeometry>
        </mxCell>
        <mxCell id="-LMKYSULlH5TtVwdixFP-52" value="" style="endArrow=none;html=1;rounded=0;exitX=0.5;exitY=1;exitDx=0;exitDy=0;entryX=0.5;entryY=0;entryDx=0;entryDy=0;" edge="1" parent="1" source="sw1r8paWphoOO6Eo6f51-4" target="sw1r8paWphoOO6Eo6f51-13">
          <mxGeometry relative="1" as="geometry">
            <mxPoint x="1100" y="360" as="sourcePoint" />
            <mxPoint x="1260" y="360" as="targetPoint" />
          </mxGeometry>
        </mxCell>
        <mxCell id="-LMKYSULlH5TtVwdixFP-53" value="" style="endArrow=none;html=1;rounded=0;exitX=0.5;exitY=1;exitDx=0;exitDy=0;entryX=0.5;entryY=0;entryDx=0;entryDy=0;" edge="1" parent="1" source="sw1r8paWphoOO6Eo6f51-4" target="sw1r8paWphoOO6Eo6f51-15">
          <mxGeometry relative="1" as="geometry">
            <mxPoint x="1110" y="370" as="sourcePoint" />
            <mxPoint x="1270" y="370" as="targetPoint" />
          </mxGeometry>
        </mxCell>
        <mxCell id="-LMKYSULlH5TtVwdixFP-54" value="" style="endArrow=none;html=1;rounded=0;exitX=0.5;exitY=1;exitDx=0;exitDy=0;entryX=0.5;entryY=0;entryDx=0;entryDy=0;" edge="1" parent="1" source="sw1r8paWphoOO6Eo6f51-4" target="-LMKYSULlH5TtVwdixFP-3">
          <mxGeometry relative="1" as="geometry">
            <mxPoint x="1120" y="380" as="sourcePoint" />
            <mxPoint x="1280" y="380" as="targetPoint" />
          </mxGeometry>
        </mxCell>
        <mxCell id="-LMKYSULlH5TtVwdixFP-55" value="" style="endArrow=none;html=1;rounded=0;entryX=0.5;entryY=1;entryDx=0;entryDy=0;exitX=0.5;exitY=0;exitDx=0;exitDy=0;" edge="1" parent="1" source="sw1r8paWphoOO6Eo6f51-37" target="sw1r8paWphoOO6Eo6f51-17">
          <mxGeometry relative="1" as="geometry">
            <mxPoint x="1130" y="390" as="sourcePoint" />
            <mxPoint x="1290" y="390" as="targetPoint" />
          </mxGeometry>
        </mxCell>
        <mxCell id="-LMKYSULlH5TtVwdixFP-56" value="" style="endArrow=none;html=1;rounded=0;entryX=0.5;entryY=1;entryDx=0;entryDy=0;exitX=0.5;exitY=0;exitDx=0;exitDy=0;" edge="1" parent="1" source="sw1r8paWphoOO6Eo6f51-35" target="sw1r8paWphoOO6Eo6f51-17">
          <mxGeometry relative="1" as="geometry">
            <mxPoint x="1140" y="400" as="sourcePoint" />
            <mxPoint x="1300" y="400" as="targetPoint" />
          </mxGeometry>
        </mxCell>
        <mxCell id="-LMKYSULlH5TtVwdixFP-57" value="" style="endArrow=none;html=1;rounded=0;entryX=0.5;entryY=1;entryDx=0;entryDy=0;exitX=0.5;exitY=0;exitDx=0;exitDy=0;" edge="1" parent="1" source="sw1r8paWphoOO6Eo6f51-30" target="sw1r8paWphoOO6Eo6f51-17">
          <mxGeometry relative="1" as="geometry">
            <mxPoint x="1150" y="410" as="sourcePoint" />
            <mxPoint x="1310" y="410" as="targetPoint" />
          </mxGeometry>
        </mxCell>
        <mxCell id="-LMKYSULlH5TtVwdixFP-58" value="" style="endArrow=none;html=1;rounded=0;entryX=0.5;entryY=1;entryDx=0;entryDy=0;exitX=0.5;exitY=0;exitDx=0;exitDy=0;" edge="1" parent="1" source="-LMKYSULlH5TtVwdixFP-28" target="-LMKYSULlH5TtVwdixFP-27">
          <mxGeometry relative="1" as="geometry">
            <mxPoint x="1160" y="420" as="sourcePoint" />
            <mxPoint x="1320" y="420" as="targetPoint" />
          </mxGeometry>
        </mxCell>
        <mxCell id="-LMKYSULlH5TtVwdixFP-60" value="" style="endArrow=none;html=1;rounded=0;exitX=0.5;exitY=1;exitDx=0;exitDy=0;entryX=0.5;entryY=0;entryDx=0;entryDy=0;" edge="1" parent="1" source="-LMKYSULlH5TtVwdixFP-27" target="-LMKYSULlH5TtVwdixFP-29">
          <mxGeometry relative="1" as="geometry">
            <mxPoint x="1180" y="440" as="sourcePoint" />
            <mxPoint x="1340" y="440" as="targetPoint" />
          </mxGeometry>
        </mxCell>
        <mxCell id="-LMKYSULlH5TtVwdixFP-61" value="" style="endArrow=none;html=1;rounded=0;exitX=0.5;exitY=1;exitDx=0;exitDy=0;entryX=0.5;entryY=0;entryDx=0;entryDy=0;" edge="1" parent="1" source="-LMKYSULlH5TtVwdixFP-10" target="-LMKYSULlH5TtVwdixFP-13">
          <mxGeometry relative="1" as="geometry">
            <mxPoint x="1190" y="450" as="sourcePoint" />
            <mxPoint x="1350" y="450" as="targetPoint" />
          </mxGeometry>
        </mxCell>
        <mxCell id="-LMKYSULlH5TtVwdixFP-62" value="" style="endArrow=none;html=1;rounded=0;exitX=0.5;exitY=1;exitDx=0;exitDy=0;entryX=0.5;entryY=0;entryDx=0;entryDy=0;" edge="1" parent="1" source="-LMKYSULlH5TtVwdixFP-10" target="-LMKYSULlH5TtVwdixFP-16">
          <mxGeometry relative="1" as="geometry">
            <mxPoint x="1200" y="460" as="sourcePoint" />
            <mxPoint x="1360" y="460" as="targetPoint" />
          </mxGeometry>
        </mxCell>
        <mxCell id="-LMKYSULlH5TtVwdixFP-63" value="" style="endArrow=none;html=1;rounded=0;exitX=0.5;exitY=1;exitDx=0;exitDy=0;entryX=0.5;entryY=0;entryDx=0;entryDy=0;" edge="1" parent="1" source="-LMKYSULlH5TtVwdixFP-10" target="-LMKYSULlH5TtVwdixFP-17">
          <mxGeometry relative="1" as="geometry">
            <mxPoint x="1210" y="470" as="sourcePoint" />
            <mxPoint x="1360" y="310" as="targetPoint" />
          </mxGeometry>
        </mxCell>
        <mxCell id="-LMKYSULlH5TtVwdixFP-64" value="" style="endArrow=none;html=1;rounded=0;exitX=0.5;exitY=1;exitDx=0;exitDy=0;entryX=0.5;entryY=0;entryDx=0;entryDy=0;" edge="1" parent="1" source="-LMKYSULlH5TtVwdixFP-10" target="-LMKYSULlH5TtVwdixFP-23">
          <mxGeometry relative="1" as="geometry">
            <mxPoint x="1200" y="320" as="sourcePoint" />
            <mxPoint x="1380" y="480" as="targetPoint" />
          </mxGeometry>
        </mxCell>
        <mxCell id="-LMKYSULlH5TtVwdixFP-65" value="" style="endArrow=none;html=1;rounded=0;exitX=0.5;exitY=1;exitDx=0;exitDy=0;entryX=0.5;entryY=0;entryDx=0;entryDy=0;" edge="1" parent="1" source="-LMKYSULlH5TtVwdixFP-10" target="-LMKYSULlH5TtVwdixFP-12">
          <mxGeometry relative="1" as="geometry">
            <mxPoint x="1230" y="490" as="sourcePoint" />
            <mxPoint x="1390" y="490" as="targetPoint" />
          </mxGeometry>
        </mxCell>
        <mxCell id="-LMKYSULlH5TtVwdixFP-66" value="" style="endArrow=none;html=1;rounded=0;exitX=0.5;exitY=1;exitDx=0;exitDy=0;entryX=0.5;entryY=0;entryDx=0;entryDy=0;" edge="1" parent="1" source="-LMKYSULlH5TtVwdixFP-10" target="-LMKYSULlH5TtVwdixFP-14">
          <mxGeometry relative="1" as="geometry">
            <mxPoint x="1240" y="500" as="sourcePoint" />
            <mxPoint x="1400" y="500" as="targetPoint" />
          </mxGeometry>
        </mxCell>
        <mxCell id="-LMKYSULlH5TtVwdixFP-67" value="" style="endArrow=none;html=1;rounded=0;exitX=0.5;exitY=1;exitDx=0;exitDy=0;entryX=0.5;entryY=0;entryDx=0;entryDy=0;" edge="1" parent="1" source="-LMKYSULlH5TtVwdixFP-10" target="-LMKYSULlH5TtVwdixFP-21">
          <mxGeometry relative="1" as="geometry">
            <mxPoint x="1250" y="510" as="sourcePoint" />
            <mxPoint x="1410" y="510" as="targetPoint" />
          </mxGeometry>
        </mxCell>
        <mxCell id="-LMKYSULlH5TtVwdixFP-68" value="" style="endArrow=none;html=1;rounded=0;exitX=0;exitY=0.5;exitDx=0;exitDy=0;entryX=1;entryY=0.5;entryDx=0;entryDy=0;" edge="1" parent="1" source="sw1r8paWphoOO6Eo6f51-5" target="sw1r8paWphoOO6Eo6f51-76">
          <mxGeometry relative="1" as="geometry">
            <mxPoint x="500" y="320" as="sourcePoint" />
            <mxPoint x="660" y="320" as="targetPoint" />
          </mxGeometry>
        </mxCell>
        <mxCell id="-LMKYSULlH5TtVwdixFP-69" value="" style="endArrow=none;html=1;rounded=0;exitX=0;exitY=0.5;exitDx=0;exitDy=0;entryX=1;entryY=0.5;entryDx=0;entryDy=0;" edge="1" parent="1" source="sw1r8paWphoOO6Eo6f51-5" target="sw1r8paWphoOO6Eo6f51-90">
          <mxGeometry relative="1" as="geometry">
            <mxPoint x="510" y="330" as="sourcePoint" />
            <mxPoint x="670" y="330" as="targetPoint" />
          </mxGeometry>
        </mxCell>
        <mxCell id="-LMKYSULlH5TtVwdixFP-70" value="" style="endArrow=none;html=1;rounded=0;exitX=0;exitY=0.5;exitDx=0;exitDy=0;entryX=1;entryY=0.5;entryDx=0;entryDy=0;" edge="1" parent="1" source="sw1r8paWphoOO6Eo6f51-5" target="sw1r8paWphoOO6Eo6f51-91">
          <mxGeometry relative="1" as="geometry">
            <mxPoint x="520" y="340" as="sourcePoint" />
            <mxPoint x="680" y="340" as="targetPoint" />
          </mxGeometry>
        </mxCell>
        <mxCell id="-LMKYSULlH5TtVwdixFP-71" value="" style="endArrow=none;html=1;rounded=0;exitX=0;exitY=0.5;exitDx=0;exitDy=0;entryX=1;entryY=0.5;entryDx=0;entryDy=0;" edge="1" parent="1" source="sw1r8paWphoOO6Eo6f51-5" target="sw1r8paWphoOO6Eo6f51-92">
          <mxGeometry relative="1" as="geometry">
            <mxPoint x="530" y="350" as="sourcePoint" />
            <mxPoint x="690" y="350" as="targetPoint" />
          </mxGeometry>
        </mxCell>
        <mxCell id="-LMKYSULlH5TtVwdixFP-72" value="" style="endArrow=none;html=1;rounded=0;exitX=0;exitY=0.5;exitDx=0;exitDy=0;entryX=1;entryY=0.5;entryDx=0;entryDy=0;" edge="1" parent="1" source="sw1r8paWphoOO6Eo6f51-5" target="sw1r8paWphoOO6Eo6f51-93">
          <mxGeometry relative="1" as="geometry">
            <mxPoint x="540" y="360" as="sourcePoint" />
            <mxPoint x="700" y="360" as="targetPoint" />
          </mxGeometry>
        </mxCell>
        <mxCell id="-LMKYSULlH5TtVwdixFP-73" value="" style="endArrow=none;html=1;rounded=0;exitX=0;exitY=0.5;exitDx=0;exitDy=0;entryX=1;entryY=0.5;entryDx=0;entryDy=0;" edge="1" parent="1" source="sw1r8paWphoOO6Eo6f51-5" target="sw1r8paWphoOO6Eo6f51-77">
          <mxGeometry relative="1" as="geometry">
            <mxPoint x="550" y="370" as="sourcePoint" />
            <mxPoint x="710" y="370" as="targetPoint" />
          </mxGeometry>
        </mxCell>
        <mxCell id="-LMKYSULlH5TtVwdixFP-74" value="" style="endArrow=none;html=1;rounded=0;exitX=0;exitY=0.5;exitDx=0;exitDy=0;entryX=1;entryY=0.5;entryDx=0;entryDy=0;" edge="1" parent="1" source="sw1r8paWphoOO6Eo6f51-5" target="sw1r8paWphoOO6Eo6f51-88">
          <mxGeometry relative="1" as="geometry">
            <mxPoint x="560" y="380" as="sourcePoint" />
            <mxPoint x="720" y="380" as="targetPoint" />
          </mxGeometry>
        </mxCell>
        <mxCell id="-LMKYSULlH5TtVwdixFP-78" value="" style="endArrow=none;html=1;rounded=0;exitX=1;exitY=0.5;exitDx=0;exitDy=0;entryX=0;entryY=0.5;entryDx=0;entryDy=0;" edge="1" parent="1" source="sw1r8paWphoOO6Eo6f51-79" target="sw1r8paWphoOO6Eo6f51-2">
          <mxGeometry relative="1" as="geometry">
            <mxPoint x="220" y="170" as="sourcePoint" />
            <mxPoint x="400" y="148.95" as="targetPoint" />
          </mxGeometry>
        </mxCell>
        <mxCell id="-LMKYSULlH5TtVwdixFP-79" value="" style="endArrow=none;html=1;rounded=0;exitX=1;exitY=0.5;exitDx=0;exitDy=0;entryX=0;entryY=0.5;entryDx=0;entryDy=0;" edge="1" parent="1" source="sw1r8paWphoOO6Eo6f51-80" target="sw1r8paWphoOO6Eo6f51-2">
          <mxGeometry relative="1" as="geometry">
            <mxPoint x="340" y="179.47" as="sourcePoint" />
            <mxPoint x="500" y="179.47" as="targetPoint" />
          </mxGeometry>
        </mxCell>
        <mxCell id="-LMKYSULlH5TtVwdixFP-81" value="" style="endArrow=none;html=1;rounded=0;exitX=1;exitY=0.5;exitDx=0;exitDy=0;entryX=0;entryY=0.5;entryDx=0;entryDy=0;" edge="1" parent="1" source="-LMKYSULlH5TtVwdixFP-32" target="sw1r8paWphoOO6Eo6f51-2">
          <mxGeometry relative="1" as="geometry">
            <mxPoint x="350" y="189.47" as="sourcePoint" />
            <mxPoint x="510" y="189.47" as="targetPoint" />
          </mxGeometry>
        </mxCell>
        <mxCell id="-LMKYSULlH5TtVwdixFP-82" value="" style="endArrow=none;html=1;rounded=0;exitX=1;exitY=0.5;exitDx=0;exitDy=0;entryX=0;entryY=0.5;entryDx=0;entryDy=0;" edge="1" parent="1" source="sw1r8paWphoOO6Eo6f51-74" target="sw1r8paWphoOO6Eo6f51-2">
          <mxGeometry relative="1" as="geometry">
            <mxPoint x="360" y="199.47" as="sourcePoint" />
            <mxPoint x="340" y="150" as="targetPoint" />
          </mxGeometry>
        </mxCell>
        <mxCell id="-LMKYSULlH5TtVwdixFP-84" value="" style="endArrow=none;html=1;rounded=0;exitX=1;exitY=0.5;exitDx=0;exitDy=0;entryX=0;entryY=0.5;entryDx=0;entryDy=0;" edge="1" parent="1" source="sw1r8paWphoOO6Eo6f51-75" target="sw1r8paWphoOO6Eo6f51-2">
          <mxGeometry relative="1" as="geometry">
            <mxPoint x="380" y="219.47" as="sourcePoint" />
            <mxPoint x="540" y="219.47" as="targetPoint" />
          </mxGeometry>
        </mxCell>
        <mxCell id="-LMKYSULlH5TtVwdixFP-85" value="" style="endArrow=none;html=1;rounded=0;exitX=1;exitY=0.5;exitDx=0;exitDy=0;entryX=0;entryY=0.5;entryDx=0;entryDy=0;" edge="1" parent="1" source="sw1r8paWphoOO6Eo6f51-78" target="sw1r8paWphoOO6Eo6f51-2">
          <mxGeometry relative="1" as="geometry">
            <mxPoint x="390" y="229.47" as="sourcePoint" />
            <mxPoint x="550" y="229.47" as="targetPoint" />
          </mxGeometry>
        </mxCell>
        <mxCell id="-LMKYSULlH5TtVwdixFP-87" value="" style="endArrow=none;html=1;rounded=0;entryX=0.5;entryY=0;entryDx=0;entryDy=0;exitX=0.5;exitY=1;exitDx=0;exitDy=0;" edge="1" parent="1" source="-LMKYSULlH5TtVwdixFP-22" target="-LMKYSULlH5TtVwdixFP-11">
          <mxGeometry relative="1" as="geometry">
            <mxPoint x="400" y="239.47" as="sourcePoint" />
            <mxPoint x="560" y="239.47" as="targetPoint" />
          </mxGeometry>
        </mxCell>
        <mxCell id="-LMKYSULlH5TtVwdixFP-88" value="" style="endArrow=none;html=1;rounded=0;exitX=0.5;exitY=1;exitDx=0;exitDy=0;entryX=0.5;entryY=0;entryDx=0;entryDy=0;" edge="1" parent="1" source="sw1r8paWphoOO6Eo6f51-55" target="-LMKYSULlH5TtVwdixFP-11">
          <mxGeometry relative="1" as="geometry">
            <mxPoint x="140" y="-210" as="sourcePoint" />
            <mxPoint x="560" y="-170" as="targetPoint" />
          </mxGeometry>
        </mxCell>
        <mxCell id="-LMKYSULlH5TtVwdixFP-89" value="" style="endArrow=none;html=1;rounded=0;entryX=0.5;entryY=0;entryDx=0;entryDy=0;exitX=0.5;exitY=1;exitDx=0;exitDy=0;" edge="1" parent="1" source="sw1r8paWphoOO6Eo6f51-59" target="-LMKYSULlH5TtVwdixFP-11">
          <mxGeometry relative="1" as="geometry">
            <mxPoint x="150" y="-200" as="sourcePoint" />
            <mxPoint x="545" y="-120" as="targetPoint" />
          </mxGeometry>
        </mxCell>
        <mxCell id="-LMKYSULlH5TtVwdixFP-90" value="" style="endArrow=none;html=1;rounded=0;entryX=0.5;entryY=0;entryDx=0;entryDy=0;exitX=0.5;exitY=1;exitDx=0;exitDy=0;" edge="1" parent="1" source="sw1r8paWphoOO6Eo6f51-58" target="-LMKYSULlH5TtVwdixFP-11">
          <mxGeometry relative="1" as="geometry">
            <mxPoint x="160" y="-190" as="sourcePoint" />
            <mxPoint x="555" y="-110" as="targetPoint" />
          </mxGeometry>
        </mxCell>
        <mxCell id="-LMKYSULlH5TtVwdixFP-91" value="" style="endArrow=none;html=1;rounded=0;entryX=0.5;entryY=0;entryDx=0;entryDy=0;exitX=0.5;exitY=1;exitDx=0;exitDy=0;" edge="1" parent="1" source="sw1r8paWphoOO6Eo6f51-61" target="-LMKYSULlH5TtVwdixFP-11">
          <mxGeometry relative="1" as="geometry">
            <mxPoint x="170" y="-180" as="sourcePoint" />
            <mxPoint x="565" y="-100" as="targetPoint" />
          </mxGeometry>
        </mxCell>
        <mxCell id="-LMKYSULlH5TtVwdixFP-92" value="" style="endArrow=none;html=1;rounded=0;entryX=0.5;entryY=0;entryDx=0;entryDy=0;exitX=0.5;exitY=1;exitDx=0;exitDy=0;" edge="1" parent="1" source="sw1r8paWphoOO6Eo6f51-52" target="-LMKYSULlH5TtVwdixFP-11">
          <mxGeometry relative="1" as="geometry">
            <mxPoint x="180" y="-170" as="sourcePoint" />
            <mxPoint x="575" y="-90" as="targetPoint" />
          </mxGeometry>
        </mxCell>
        <mxCell id="-LMKYSULlH5TtVwdixFP-93" value="" style="endArrow=none;html=1;rounded=0;entryX=0.5;entryY=0;entryDx=0;entryDy=0;exitX=0.5;exitY=1;exitDx=0;exitDy=0;" edge="1" parent="1" source="-LMKYSULlH5TtVwdixFP-20" target="-LMKYSULlH5TtVwdixFP-11">
          <mxGeometry relative="1" as="geometry">
            <mxPoint x="190" y="-160" as="sourcePoint" />
            <mxPoint x="585" y="-80" as="targetPoint" />
          </mxGeometry>
        </mxCell>
        <mxCell id="-LMKYSULlH5TtVwdixFP-94" value="" style="endArrow=none;html=1;rounded=0;exitX=0.5;exitY=1;exitDx=0;exitDy=0;entryX=0.5;entryY=0;entryDx=0;entryDy=0;" edge="1" parent="1" source="-LMKYSULlH5TtVwdixFP-24" target="-LMKYSULlH5TtVwdixFP-11">
          <mxGeometry relative="1" as="geometry">
            <mxPoint x="200" y="-150" as="sourcePoint" />
            <mxPoint x="595" y="-70" as="targetPoint" />
          </mxGeometry>
        </mxCell>
        <mxCell id="-LMKYSULlH5TtVwdixFP-95" value="" style="endArrow=none;html=1;rounded=0;entryX=0.5;entryY=0;entryDx=0;entryDy=0;exitX=0.5;exitY=1;exitDx=0;exitDy=0;" edge="1" parent="1" source="sw1r8paWphoOO6Eo6f51-60" target="sw1r8paWphoOO6Eo6f51-1">
          <mxGeometry relative="1" as="geometry">
            <mxPoint x="210" y="-140" as="sourcePoint" />
            <mxPoint x="605" y="-60" as="targetPoint" />
          </mxGeometry>
        </mxCell>
        <mxCell id="-LMKYSULlH5TtVwdixFP-96" value="" style="endArrow=none;html=1;rounded=0;entryX=0.5;entryY=0;entryDx=0;entryDy=0;exitX=0.5;exitY=1;exitDx=0;exitDy=0;" edge="1" parent="1" source="-LMKYSULlH5TtVwdixFP-26" target="sw1r8paWphoOO6Eo6f51-1">
          <mxGeometry relative="1" as="geometry">
            <mxPoint x="1175" y="-198" as="sourcePoint" />
            <mxPoint x="1490" y="-130" as="targetPoint" />
          </mxGeometry>
        </mxCell>
        <mxCell id="-LMKYSULlH5TtVwdixFP-97" value="" style="endArrow=none;html=1;rounded=0;entryX=0.5;entryY=0;entryDx=0;entryDy=0;exitX=0.5;exitY=1;exitDx=0;exitDy=0;" edge="1" parent="1" source="-LMKYSULlH5TtVwdixFP-25" target="sw1r8paWphoOO6Eo6f51-1">
          <mxGeometry relative="1" as="geometry">
            <mxPoint x="1185" y="-188" as="sourcePoint" />
            <mxPoint x="1500" y="-120" as="targetPoint" />
          </mxGeometry>
        </mxCell>
        <mxCell id="-LMKYSULlH5TtVwdixFP-98" value="" style="endArrow=none;html=1;rounded=0;entryX=0.5;entryY=0;entryDx=0;entryDy=0;exitX=0.5;exitY=1;exitDx=0;exitDy=0;" edge="1" parent="1" source="sw1r8paWphoOO6Eo6f51-53" target="sw1r8paWphoOO6Eo6f51-1">
          <mxGeometry relative="1" as="geometry">
            <mxPoint x="1195" y="-178" as="sourcePoint" />
            <mxPoint x="1510" y="-110" as="targetPoint" />
          </mxGeometry>
        </mxCell>
        <mxCell id="-LMKYSULlH5TtVwdixFP-99" value="" style="endArrow=none;html=1;rounded=0;entryX=0.5;entryY=0;entryDx=0;entryDy=0;exitX=0.5;exitY=1;exitDx=0;exitDy=0;" edge="1" parent="1" source="sw1r8paWphoOO6Eo6f51-44" target="sw1r8paWphoOO6Eo6f51-1">
          <mxGeometry relative="1" as="geometry">
            <mxPoint x="1205" y="-168" as="sourcePoint" />
            <mxPoint x="1520" y="-100" as="targetPoint" />
          </mxGeometry>
        </mxCell>
        <mxCell id="-LMKYSULlH5TtVwdixFP-100" value="" style="endArrow=none;html=1;rounded=0;entryX=0.5;entryY=0;entryDx=0;entryDy=0;exitX=0.5;exitY=1;exitDx=0;exitDy=0;" edge="1" parent="1" source="sw1r8paWphoOO6Eo6f51-43" target="sw1r8paWphoOO6Eo6f51-1">
          <mxGeometry relative="1" as="geometry">
            <mxPoint x="1215" y="-158" as="sourcePoint" />
            <mxPoint x="1530" y="-90" as="targetPoint" />
          </mxGeometry>
        </mxCell>
        <mxCell id="-LMKYSULlH5TtVwdixFP-101" value="" style="endArrow=none;html=1;rounded=0;entryX=0.5;entryY=0;entryDx=0;entryDy=0;exitX=0.5;exitY=1;exitDx=0;exitDy=0;" edge="1" parent="1" source="sw1r8paWphoOO6Eo6f51-42" target="sw1r8paWphoOO6Eo6f51-1">
          <mxGeometry relative="1" as="geometry">
            <mxPoint x="1225" y="-148" as="sourcePoint" />
            <mxPoint x="1540" y="-80" as="targetPoint" />
          </mxGeometry>
        </mxCell>
        <mxCell id="-LMKYSULlH5TtVwdixFP-103" value="" style="edgeStyle=entityRelationEdgeStyle;fontSize=12;html=1;endArrow=ERmany;rounded=0;entryX=1;entryY=0.5;entryDx=0;entryDy=0;exitX=0.5;exitY=0;exitDx=0;exitDy=0;" edge="1" parent="1" source="-LMKYSULlH5TtVwdixFP-31" target="sw1r8paWphoOO6Eo6f51-1">
          <mxGeometry width="100" height="100" relative="1" as="geometry">
            <mxPoint x="970" y="320" as="sourcePoint" />
            <mxPoint x="1070" y="220" as="targetPoint" />
          </mxGeometry>
        </mxCell>
        <mxCell id="-LMKYSULlH5TtVwdixFP-105" value="" style="edgeStyle=entityRelationEdgeStyle;fontSize=12;html=1;endArrow=ERone;endFill=1;rounded=0;exitX=1;exitY=0.5;exitDx=0;exitDy=0;entryX=0.5;entryY=0;entryDx=0;entryDy=0;" edge="1" parent="1" source="-LMKYSULlH5TtVwdixFP-31" target="-LMKYSULlH5TtVwdixFP-27">
          <mxGeometry width="100" height="100" relative="1" as="geometry">
            <mxPoint x="1790.0000000000005" as="sourcePoint" />
            <mxPoint x="1860" y="130" as="targetPoint" />
            <Array as="points">
              <mxPoint x="1860" y="130" />
            </Array>
          </mxGeometry>
        </mxCell>
        <mxCell id="-LMKYSULlH5TtVwdixFP-107" value="" style="edgeStyle=entityRelationEdgeStyle;fontSize=12;html=1;endArrow=ERmany;rounded=0;entryX=0.5;entryY=1;entryDx=0;entryDy=0;exitX=0.5;exitY=0;exitDx=0;exitDy=0;" edge="1" parent="1" source="-LMKYSULlH5TtVwdixFP-18" target="sw1r8paWphoOO6Eo6f51-1">
          <mxGeometry width="100" height="100" relative="1" as="geometry">
            <mxPoint x="1170" y="140" as="sourcePoint" />
            <mxPoint x="1270" y="40" as="targetPoint" />
          </mxGeometry>
        </mxCell>
        <mxCell id="-LMKYSULlH5TtVwdixFP-108" value="" style="edgeStyle=entityRelationEdgeStyle;fontSize=12;html=1;endArrow=ERone;endFill=1;rounded=0;entryX=1;entryY=0.5;entryDx=0;entryDy=0;exitX=0;exitY=0.5;exitDx=0;exitDy=0;" edge="1" parent="1" source="-LMKYSULlH5TtVwdixFP-18" target="-LMKYSULlH5TtVwdixFP-10">
          <mxGeometry width="100" height="100" relative="1" as="geometry">
            <mxPoint x="1180" y="240" as="sourcePoint" />
            <mxPoint x="1420" y="150" as="targetPoint" />
          </mxGeometry>
        </mxCell>
        <mxCell id="-LMKYSULlH5TtVwdixFP-109" value="" style="edgeStyle=entityRelationEdgeStyle;fontSize=12;html=1;endArrow=ERmany;rounded=0;entryX=0;entryY=0.5;entryDx=0;entryDy=0;exitX=1;exitY=0.5;exitDx=0;exitDy=0;" edge="1" parent="1" source="-LMKYSULlH5TtVwdixFP-19" target="sw1r8paWphoOO6Eo6f51-1">
          <mxGeometry width="100" height="100" relative="1" as="geometry">
            <mxPoint x="1350" y="40" as="sourcePoint" />
            <mxPoint x="1380" y="-100" as="targetPoint" />
          </mxGeometry>
        </mxCell>
        <mxCell id="-LMKYSULlH5TtVwdixFP-110" value="" style="edgeStyle=entityRelationEdgeStyle;fontSize=12;html=1;endArrow=ERone;endFill=1;rounded=0;exitX=0;exitY=0.5;exitDx=0;exitDy=0;entryX=1;entryY=0.5;entryDx=0;entryDy=0;" edge="1" parent="1" source="-LMKYSULlH5TtVwdixFP-19" target="-LMKYSULlH5TtVwdixFP-11">
          <mxGeometry width="100" height="100" relative="1" as="geometry">
            <mxPoint x="900" y="-40" as="sourcePoint" />
            <mxPoint x="660" y="-80" as="targetPoint" />
          </mxGeometry>
        </mxCell>
      </root>
    </mxGraphModel>
  </diagram>
</mxfile>
